<svg xmlns="http://www.w3.org/2000/svg" viewBox="0 0 34.16 50"><defs><style>.cls-1{fill:#585b63;}</style></defs><title>icon-Location</title><g id="Layer_2" data-name="Layer 2"><g id="icon-Location"><path class="cls-1" d="M17.08,50a5.1,5.1,0,0,1-4.66-2.93L1.14,23.15A13.87,13.87,0,0,1,0,17.08a17.08,17.08,0,0,1,34.16,0A13.86,13.86,0,0,1,33,23.15L21.77,47.08A5.2,5.2,0,0,1,17.08,50Zm0-47.5A14.6,14.6,0,0,0,2.5,17.08a11.52,11.52,0,0,0,.9,5L14.69,46a2.63,2.63,0,0,0,2.39,1.48A2.68,2.68,0,0,0,19.51,46L30.76,22.09a11.52,11.52,0,0,0,.9-5A14.6,14.6,0,0,0,17.08,2.5Z"/><path class="cls-1" d="M17.08,26.52a9.56,9.56,0,0,1,0-19.12,9.56,9.56,0,0,1,0,19.12Zm0-16.62a7.06,7.06,0,0,0,0,14.12,7.06,7.06,0,0,0,0-14.12Z"/></g></g></svg>