<svg xmlns="http://www.w3.org/2000/svg" xmlns:xlink="http://www.w3.org/1999/xlink" viewBox="0 0 49.26 40.46"><defs><style>.cls-1{fill:none;}.cls-2{clip-path:url(#clip-path);}.cls-3{fill:#585b63;}</style><clipPath id="clip-path"><rect class="cls-1" width="49.26" height="40.46"/></clipPath></defs><title>icon-Contact</title><g id="Layer_2" data-name="Layer 2"><g id="icon-Contact"><g id="Layer_3" data-name="Layer 3"><g class="cls-2"><path class="cls-3" d="M35.07,36.74a7.48,7.48,0,0,1-5.47,2c-5.14,0-12.29-3.38-18.36-9.48S1.74,16,1.76,10.86a7.46,7.46,0,0,1,2-5.47A6.61,6.61,0,0,1,7.24,3.6l5.28,10L9.33,17.35A1.38,1.38,0,0,0,9,18.3a7,7,0,0,0,1.59,3.38,37,37,0,0,0,3.8,4.39,36.68,36.68,0,0,0,4.39,3.8,7,7,0,0,0,3.38,1.59,1.39,1.39,0,0,0,.95-.34l3.77-3.19,10,5.28a6.63,6.63,0,0,1-1.78,3.52M38.23,32,27.18,26.1a.88.88,0,0,0-1,.11L22.07,29.7a8.12,8.12,0,0,1-2.26-1.26,34.85,34.85,0,0,1-4.17-3.61A35.08,35.08,0,0,1,12,20.65a8.19,8.19,0,0,1-1.26-2.26l3.49-4.14a.88.88,0,0,0,.11-1L8.5,2.23a.88.88,0,0,0-.88-.46A8.59,8.59,0,0,0,2.48,4.14,9.21,9.21,0,0,0,0,10.86c0,5.87,3.67,13.26,10,19.6s13.74,10,19.61,10h0A9.23,9.23,0,0,0,36.32,38a8.63,8.63,0,0,0,2.38-5.14.88.88,0,0,0-.46-.89M43.1,6.16H30.79a.88.88,0,1,0,0,1.76H43.1a.88.88,0,1,0,0-1.76M39.58,9.68h-8.8a.88.88,0,0,0,0,1.76h8.8a.88.88,0,1,0,0-1.76m6.16,6.16H36.94a.89.89,0,0,0-.62.26l-5.53,5.53V16.71a.88.88,0,0,0-.88-.88H28.15a1.76,1.76,0,0,1-1.76-1.76V3.52a1.76,1.76,0,0,1,1.76-1.76H45.74A1.77,1.77,0,0,1,47.5,3.52V14.07a1.76,1.76,0,0,1-1.76,1.76M49.26,3.52A3.52,3.52,0,0,0,45.74,0H28.15a3.52,3.52,0,0,0-3.52,3.52V14.07a3.52,3.52,0,0,0,3.52,3.52H29v6.16a.88.88,0,0,0,1.5.62l6.78-6.78h8.43a3.52,3.52,0,0,0,3.52-3.52Z"/></g></g></g></g></svg>