<svg xmlns="http://www.w3.org/2000/svg" xmlns:xlink="http://www.w3.org/1999/xlink" viewBox="0 0 38.02 49.43"><defs><style>.cls-1{fill:none;}.cls-2{clip-path:url(#clip-path);}.cls-3{fill:#585b63;}</style><clipPath id="clip-path"><rect class="cls-1" width="38.02" height="49.43"/></clipPath></defs><title>icon-Timetable</title><g id="Layer_2" data-name="Layer 2"><g id="icon-GymHours"><g class="cls-2"><path class="cls-3" d="M19,32.32a1.9,1.9,0,1,1,1.9-1.9,1.9,1.9,0,0,1-1.9,1.9M29.19,21.58a1,1,0,1,0-1.35-1.34l-6.91,6.91A3.75,3.75,0,0,0,19,26.61a3.85,3.85,0,1,0,3.27,1.88ZM9.94,18.85a1,1,0,1,0-1.35,1.34l1.34,1.34a1,1,0,1,0,1.35-1.34ZM9.26,37.67,7.92,39a1,1,0,0,0,1.35,1.34L10.61,39a1,1,0,0,0-1.35-1.34M6.66,28.51H4.75a1,1,0,0,0,0,1.9h1.9a1,1,0,1,0,0-1.9m21.43,9.83a.95.95,0,1,0-1.34,1.34L28.08,41a1,1,0,0,0,1.35-1.35Zm5.19-8.88h-1.9a1,1,0,0,0,0,1.9h1.9a1,1,0,1,0,0-1.9M19,41.82a1,1,0,0,0-1,1v1.9a1,1,0,0,0,1.9,0v-1.9a1,1,0,0,0-1-1M19,19a1,1,0,0,0,1-.95v-1.9a1,1,0,1,0-1.9,0v1.9A1,1,0,0,0,19,19m0,28.52A17.11,17.11,0,1,1,36.12,30.42,17.13,17.13,0,0,1,19,47.52M3,15.72a1,1,0,1,1,1.35-1.34l2,2a18.74,18.74,0,0,0-1.34,1.34ZM20,7.6v3.85c-.32,0-.63,0-1,0s-.63,0-1,0V7.6ZM15.21,5.7a1.9,1.9,0,0,1,0-3.8h7.6a1.9,1.9,0,0,1,0,3.8Zm18.5,8.67a1,1,0,0,1,1.62.67,1,1,0,0,1-.28.67l-2,2q-.64-.71-1.34-1.34Zm.59,4.78,2.09-2.1a2.85,2.85,0,1,0-4-4l-2.09,2.09a18.88,18.88,0,0,0-8.41-3.48v-4h1a3.8,3.8,0,1,0,0-7.6h-7.6a3.8,3.8,0,1,0,0,7.6h1v4a18.89,18.89,0,0,0-8.41,3.48L5.66,13a2.85,2.85,0,1,0-4,4l2.1,2.1A19,19,0,1,0,38,30.42,18.9,18.9,0,0,0,34.3,19.16"/></g></g></g></svg>