<svg xmlns="http://www.w3.org/2000/svg" viewBox="0 0 45.46 44.27"><defs><style>.cls-1{fill:#585b63;}</style></defs><title>icon-Calendar</title><g id="Layer_2" data-name="Layer 2"><g id="icon-Timetable"><path class="cls-1" d="M34.09,24h3.5v1.85h-3.5Zm-.87,3.69h5.24a.85.85,0,0,0,.62-.27.94.94,0,0,0,.26-.65V23.05a1,1,0,0,0-.25-.65.86.86,0,0,0-.62-.27H33.22a.85.85,0,0,0-.62.27,1,1,0,0,0-.26.65v3.69a.94.94,0,0,0,.26.65.85.85,0,0,0,.62.27m.87-11.07h3.5v1.85h-3.5Zm-.87,3.69h5.24a.84.84,0,0,0,.62-.27.94.94,0,0,0,.26-.65V15.68a1,1,0,0,0-.25-.65.86.86,0,0,0-.62-.27H33.22a.86.86,0,0,0-.62.27,1,1,0,0,0-.26.65v3.69a.94.94,0,0,0,.26.65.85.85,0,0,0,.62.27M25.35,31.35h3.5V33.2h-3.5ZM24.48,35h5.24a.84.84,0,0,0,.62-.27.94.94,0,0,0,.26-.65V30.43a1,1,0,0,0-.26-.65.86.86,0,0,0-.62-.27H24.48a.86.86,0,0,0-.62.27,1,1,0,0,0-.25.65v3.69a.94.94,0,0,0,.26.65.85.85,0,0,0,.62.27M25.35,24h3.5v1.85h-3.5Zm-.87,3.69h5.24a.85.85,0,0,0,.62-.27.94.94,0,0,0,.26-.65V23.05a1,1,0,0,0-.26-.65.85.85,0,0,0-.62-.27H24.48a.85.85,0,0,0-.62.27,1,1,0,0,0-.25.65v3.69a.94.94,0,0,0,.25.65.85.85,0,0,0,.62.27m.87-11.07h3.5v1.85h-3.5Zm-.87,3.69h5.24a.85.85,0,0,0,.62-.27,1,1,0,0,0,.26-.65V15.68a1,1,0,0,0-.26-.65.86.86,0,0,0-.62-.27H24.48a.85.85,0,0,0-.62.27,1,1,0,0,0-.26.65v3.69a.94.94,0,0,0,.26.65.85.85,0,0,0,.62.27M20.11,33.2h-3.5V31.35h3.5ZM21,29.51H15.74a.86.86,0,0,0-.62.27,1,1,0,0,0-.25.65v3.69a.94.94,0,0,0,.26.65.85.85,0,0,0,.62.27H21a.85.85,0,0,0,.62-.27.94.94,0,0,0,.26-.65V30.43a1,1,0,0,0-.26-.65.86.86,0,0,0-.62-.27M16.61,24h3.5v1.85h-3.5Zm-.88,3.69H21a.85.85,0,0,0,.62-.27,1,1,0,0,0,.26-.65V23.05a1,1,0,0,0-.26-.65.85.85,0,0,0-.62-.27H15.74a.85.85,0,0,0-.62.27,1,1,0,0,0-.25.65v3.69a.94.94,0,0,0,.26.65.85.85,0,0,0,.62.27m.88-11.07h3.5v1.85h-3.5Zm-.87,3.69H21A.84.84,0,0,0,21.6,20a.94.94,0,0,0,.26-.65V15.68A1,1,0,0,0,21.6,15a.86.86,0,0,0-.62-.27H15.74a.86.86,0,0,0-.62.27,1,1,0,0,0-.25.65v3.69a.94.94,0,0,0,.26.65.85.85,0,0,0,.62.27M7.87,31.35h3.5V33.2H7.87ZM7,35h5.25a.85.85,0,0,0,.62-.27.94.94,0,0,0,.26-.65V30.43a1,1,0,0,0-.26-.65.86.86,0,0,0-.62-.27H7a.86.86,0,0,0-.62.27,1,1,0,0,0-.25.65v3.69a.94.94,0,0,0,.26.65A.84.84,0,0,0,7,35M7.87,24h3.5v1.85H7.87ZM7,27.67h5.24a.84.84,0,0,0,.62-.27.94.94,0,0,0,.26-.65V23.05a1,1,0,0,0-.26-.65.85.85,0,0,0-.62-.27H7a.85.85,0,0,0-.62.27,1,1,0,0,0-.25.65v3.69a.94.94,0,0,0,.25.65.85.85,0,0,0,.62.27M7.87,16.6h3.5v1.85H7.87ZM7,20.29h5.25a.84.84,0,0,0,.62-.27,1,1,0,0,0,.26-.65V15.68a1,1,0,0,0-.26-.65.86.86,0,0,0-.62-.27H7a.86.86,0,0,0-.62.27,1,1,0,0,0-.25.65v3.69a.94.94,0,0,0,.26.65.84.84,0,0,0,.62.27M43.71,40.58A1.8,1.8,0,0,1,42,42.42H3.5a1.8,1.8,0,0,1-1.75-1.85v-.51a3.34,3.34,0,0,0,1.75.51H42a3.33,3.33,0,0,0,1.75-.51Zm-42-29.51h42V36.89A1.8,1.8,0,0,1,42,38.73H3.5A1.8,1.8,0,0,1,1.75,36.9h0Zm0-3.69A1.8,1.8,0,0,1,3.5,5.53H14V7.38a.88.88,0,1,0,1.75,0V5.53h14V7.38a.88.88,0,1,0,1.75,0V5.53H42a1.8,1.8,0,0,1,1.75,1.85V9.22h-42ZM42,3.69H31.47V.92a.88.88,0,1,0-1.75,0V3.69h-14V.92A.87.87,0,1,0,14,.92V3.69H3.5A3.6,3.6,0,0,0,0,7.38v33.2a3.6,3.6,0,0,0,3.5,3.69H42a3.6,3.6,0,0,0,3.5-3.69V7.38A3.6,3.6,0,0,0,42,3.69"/></g></g></svg>