<?xml version="1.0" encoding="utf-8"?>
<!-- Generator: Adobe Illustrator 21.1.0, SVG Export Plug-In . SVG Version: 6.00 Build 0)  -->
<svg version="1.1" id="Layer_1" xmlns="http://www.w3.org/2000/svg" xmlns:xlink="http://www.w3.org/1999/xlink" x="0px" y="0px"
	 viewBox="0 0 503 110.5" style="enable-background:new 0 0 503 110.5;" xml:space="preserve">
<style type="text/css">
	.st0{fill:#D12027;}
	.st1{fill-rule:evenodd;clip-rule:evenodd;fill:#D12027;}
	.st2{fill:#F9FCFE;}
</style>
<polygon class="st0" points="212.5,24.8 131.8,24.8 138.5,0.6 219.2,0.6 "/>
<polygon class="st0" points="157.8,65.6 201.2,65.6 207.9,41.5 127.2,41.5 108,110.5 145.4,110.5 "/>
<path class="st1" d="M249.4,85.5c-1-0.6-1.6-1.3-1.8-2.2c-0.1-0.3-0.1-0.6-0.1-0.9c0-0.3,0.1-0.5,0.1-0.8l14.6-52.8
	c0.4-1.5,1.2-2.6,2.2-3.2c1.1-0.6,2.9-0.9,5.5-0.9h40.3L317,0.6h-56.6c-10.3,0-17.5,1.2-21.7,3.5c-4.2,2.3-7.1,6.4-8.8,12.5
	l-20.9,75.2c-0.3,1.1-0.5,2.2-0.5,3.3c-0.1,1.2,0.1,2.3,0.3,3.4c1,3.7,3.4,6.6,7.2,8.8c3.8,2.1,8.6,3.2,14.2,3.2h59.2l6.7-24.2H253
	C251.6,86.3,250.4,86.1,249.4,85.5"/>
<path class="st1" d="M26.2,0.6L0.9,91.9c-0.3,1.1-0.5,2.2-0.5,3.3c-0.1,1.2,0.1,2.3,0.3,3.4c1,3.7,3.4,6.6,7.2,8.8
	c3.8,2.1,8.6,3.2,14.2,3.2l42.1,0c10.3,0,17.5-1.2,21.7-3.5c4.2-2.3,7.1-6.4,8.8-12.5l26-93.8H83.4L60.7,82.2
	c-0.4,1.5-1.2,2.6-2.2,3.2c-1.1,0.6-2.9,0.9-5.5,0.9h-6.4c-1.4,0-2.7-0.3-3.6-0.8c-1-0.6-1.6-1.3-1.8-2.2C41,83,41,82.7,41,82.4
	c0-0.3,0.1-0.5,0.1-0.8l22.5-81H26.2z"/>
<polygon class="st0" points="493.7,98.4 311.6,98.4 308.2,110.5 490.4,110.5 "/>
<path class="st2" d="M347.2,52.9l-3,11.1h8.3l-2.9,10.2c-2.6,0.6-6.4,1-9.2,1c-5.8,0-7.4-2.2-7.1-6c0.1-0.9,0.3-2,0.6-3l6-21.4
	c1.5-5.5,4.2-8.6,11.3-8.6c4.9,0,12.6,0.9,17.4,2.3l4.2-11.6c-4.7-1.5-12.7-3-19-3c-16.5,0-23.7,6.8-26.8,18l-7.4,26.6
	c-0.3,1.2-0.7,2.7-0.8,3.9c-0.9,9,4.8,14.9,19,14.9c8.4,0,16-1.6,21.9-4l8.5-30.4H347.2z"/>
<polygon class="st2" points="398.2,86.4 384.5,86.4 389.1,68.6 381.7,24.8 395.5,24.8 399.8,53.3 418.5,24.8 434.1,24.8 402.8,68.6 
	"/>
<polygon class="st2" points="483.4,52.6 465.7,78.3 451.9,78.3 449,52.6 437.9,86.3 424.5,86.3 444.6,24.8 458.3,24.8 462.4,64.5 
	488.4,24.8 502,24.8 489.3,86.3 476,86.3 "/>
</svg>
